<mxfile host="app.diagrams.net" modified="2021-04-23T02:15:07.113Z" agent="5.0 (Windows NT 10.0; Win64; x64) AppleWebKit/537.36 (KHTML, like Gecko) Chrome/89.0.4389.128 Safari/537.36" etag="GdkttXR1eHtmq3-gcv3w" version="14.6.6" type="github">
  <diagram id="FH6120mkQlKAiY0hOfe6" name="Page-1">
    <mxGraphModel dx="1483" dy="829" grid="1" gridSize="10" guides="1" tooltips="1" connect="1" arrows="1" fold="1" page="1" pageScale="1" pageWidth="1654" pageHeight="2336" background="none" math="0" shadow="0">
      <root>
        <mxCell id="0" />
        <mxCell id="1" parent="0" />
        <mxCell id="jEz9bOiJI1WPqpKgRF9Z-62" value="" style="rounded=0;whiteSpace=wrap;html=1;dashed=1;strokeWidth=2;gradientDirection=west;fillColor=none;" vertex="1" parent="1">
          <mxGeometry x="390" y="214.5" width="210" height="545.5" as="geometry" />
        </mxCell>
        <mxCell id="jEz9bOiJI1WPqpKgRF9Z-48" value="" style="rounded=0;whiteSpace=wrap;html=1;dashed=1;strokeWidth=2;gradientDirection=west;fillColor=none;" vertex="1" parent="1">
          <mxGeometry x="420" y="240" width="160" height="270" as="geometry" />
        </mxCell>
        <mxCell id="jEz9bOiJI1WPqpKgRF9Z-45" value="" style="rounded=0;whiteSpace=wrap;html=1;dashed=1;strokeWidth=2;gradientDirection=west;fillColor=none;" vertex="1" parent="1">
          <mxGeometry x="850" y="340" width="100" height="400" as="geometry" />
        </mxCell>
        <mxCell id="jEz9bOiJI1WPqpKgRF9Z-19" value="&lt;font style=&quot;font-size: 24px&quot;&gt;Transformer&lt;br&gt;&lt;br&gt;&lt;br&gt;Encoder&lt;br&gt;&lt;/font&gt;" style="rounded=1;whiteSpace=wrap;html=1;" vertex="1" parent="1">
          <mxGeometry x="1020" y="354.5" width="190" height="385.5" as="geometry" />
        </mxCell>
        <mxCell id="jEz9bOiJI1WPqpKgRF9Z-20" value="&lt;font style=&quot;font-size: 24px&quot;&gt;分类器&lt;br&gt;&lt;/font&gt;" style="rounded=1;whiteSpace=wrap;html=1;" vertex="1" parent="1">
          <mxGeometry x="1310" y="505" width="130" height="70" as="geometry" />
        </mxCell>
        <mxCell id="jEz9bOiJI1WPqpKgRF9Z-26" value="" style="verticalLabelPosition=bottom;verticalAlign=top;html=1;shape=mxgraph.basic.rect;fillColor2=none;strokeWidth=1;size=20;indent=5;" vertex="1" parent="1">
          <mxGeometry x="865" y="367" width="70" height="30" as="geometry" />
        </mxCell>
        <mxCell id="jEz9bOiJI1WPqpKgRF9Z-27" value="" style="verticalLabelPosition=bottom;verticalAlign=top;html=1;shape=mxgraph.basic.rect;fillColor2=none;strokeWidth=1;size=20;indent=5;" vertex="1" parent="1">
          <mxGeometry x="865" y="512" width="70" height="30" as="geometry" />
        </mxCell>
        <mxCell id="jEz9bOiJI1WPqpKgRF9Z-28" value="" style="verticalLabelPosition=bottom;verticalAlign=top;html=1;shape=mxgraph.basic.rect;fillColor2=none;strokeWidth=1;size=20;indent=5;" vertex="1" parent="1">
          <mxGeometry x="865" y="580" width="70" height="30" as="geometry" />
        </mxCell>
        <mxCell id="jEz9bOiJI1WPqpKgRF9Z-30" value="" style="group" vertex="1" connectable="0" parent="1">
          <mxGeometry x="610" y="290" width="242" height="184" as="geometry" />
        </mxCell>
        <mxCell id="jEz9bOiJI1WPqpKgRF9Z-8" value="&lt;font style=&quot;font-size: 24px&quot;&gt;MTCNN&lt;/font&gt;" style="rounded=1;whiteSpace=wrap;html=1;" vertex="1" parent="jEz9bOiJI1WPqpKgRF9Z-30">
          <mxGeometry width="104" height="57.5" as="geometry" />
        </mxCell>
        <mxCell id="jEz9bOiJI1WPqpKgRF9Z-17" value="&lt;font style=&quot;font-size: 24px&quot;&gt;MFCC&lt;/font&gt;" style="rounded=1;whiteSpace=wrap;html=1;" vertex="1" parent="jEz9bOiJI1WPqpKgRF9Z-30">
          <mxGeometry y="126.5" width="104" height="57.5" as="geometry" />
        </mxCell>
        <mxCell id="jEz9bOiJI1WPqpKgRF9Z-22" value="" style="shape=curlyBracket;whiteSpace=wrap;html=1;rounded=1;flipH=1;size=0;" vertex="1" parent="jEz9bOiJI1WPqpKgRF9Z-30">
          <mxGeometry x="112" y="24.64285714285714" width="8" height="131.42857142857144" as="geometry" />
        </mxCell>
        <mxCell id="jEz9bOiJI1WPqpKgRF9Z-24" value="" style="endArrow=classic;html=1;exitX=0.1;exitY=0.5;exitDx=0;exitDy=0;exitPerimeter=0;" edge="1" parent="jEz9bOiJI1WPqpKgRF9Z-30" source="jEz9bOiJI1WPqpKgRF9Z-22">
          <mxGeometry width="50" height="50" relative="1" as="geometry">
            <mxPoint x="136" y="164.28571428571425" as="sourcePoint" />
            <mxPoint x="230" y="90" as="targetPoint" />
          </mxGeometry>
        </mxCell>
        <mxCell id="jEz9bOiJI1WPqpKgRF9Z-31" value="&lt;font style=&quot;font-size: 18px&quot;&gt;one patch&lt;/font&gt;" style="text;html=1;strokeColor=none;fillColor=none;align=center;verticalAlign=middle;whiteSpace=wrap;rounded=0;" vertex="1" parent="jEz9bOiJI1WPqpKgRF9Z-30">
          <mxGeometry x="112" y="57.5" width="130" height="20" as="geometry" />
        </mxCell>
        <mxCell id="jEz9bOiJI1WPqpKgRF9Z-34" value="" style="endArrow=classic;html=1;exitX=0.1;exitY=0.5;exitDx=0;exitDy=0;exitPerimeter=0;" edge="1" parent="1">
          <mxGeometry width="50" height="50" relative="1" as="geometry">
            <mxPoint x="729.6000000000003" y="530.3571428571429" as="sourcePoint" />
            <mxPoint x="840.4" y="530" as="targetPoint" />
          </mxGeometry>
        </mxCell>
        <mxCell id="jEz9bOiJI1WPqpKgRF9Z-35" value="&lt;font style=&quot;font-size: 18px&quot;&gt;one patch&lt;/font&gt;" style="text;html=1;strokeColor=none;fillColor=none;align=center;verticalAlign=middle;whiteSpace=wrap;rounded=0;" vertex="1" parent="1">
          <mxGeometry x="720" y="500" width="130" height="20" as="geometry" />
        </mxCell>
        <mxCell id="jEz9bOiJI1WPqpKgRF9Z-39" value="" style="shape=image;html=1;verticalAlign=top;verticalLabelPosition=bottom;labelBackgroundColor=#ffffff;imageAspect=0;aspect=fixed;image=https://cdn0.iconfinder.com/data/icons/user-interface-1-32/32/ellipsis-128.png;sketch=0;" vertex="1" parent="1">
          <mxGeometry x="456" y="522" width="88" height="88" as="geometry" />
        </mxCell>
        <mxCell id="jEz9bOiJI1WPqpKgRF9Z-40" value="" style="shape=image;html=1;verticalAlign=top;verticalLabelPosition=bottom;labelBackgroundColor=#ffffff;imageAspect=0;aspect=fixed;image=https://cdn0.iconfinder.com/data/icons/user-interface-1-32/32/ellipsis-128.png" vertex="1" parent="1">
          <mxGeometry x="456" y="641" width="88" height="88" as="geometry" />
        </mxCell>
        <mxCell id="jEz9bOiJI1WPqpKgRF9Z-41" value="" style="endArrow=classic;html=1;exitX=0.1;exitY=0.5;exitDx=0;exitDy=0;exitPerimeter=0;" edge="1" parent="1">
          <mxGeometry width="50" height="50" relative="1" as="geometry">
            <mxPoint x="729.6000000000004" y="600.3571428571429" as="sourcePoint" />
            <mxPoint x="840.4000000000001" y="600" as="targetPoint" />
          </mxGeometry>
        </mxCell>
        <mxCell id="jEz9bOiJI1WPqpKgRF9Z-42" value="&lt;font style=&quot;font-size: 18px&quot;&gt;one patch&lt;/font&gt;" style="text;html=1;strokeColor=none;fillColor=none;align=center;verticalAlign=middle;whiteSpace=wrap;rounded=0;" vertex="1" parent="1">
          <mxGeometry x="720" y="570" width="130" height="20" as="geometry" />
        </mxCell>
        <mxCell id="jEz9bOiJI1WPqpKgRF9Z-43" value="" style="shape=image;html=1;verticalAlign=top;verticalLabelPosition=bottom;labelBackgroundColor=#ffffff;imageAspect=0;aspect=fixed;image=https://cdn0.iconfinder.com/data/icons/user-interface-1-32/32/ellipsis-128.png" vertex="1" parent="1">
          <mxGeometry x="741" y="640" width="88" height="88" as="geometry" />
        </mxCell>
        <mxCell id="jEz9bOiJI1WPqpKgRF9Z-44" value="" style="shape=image;html=1;verticalAlign=top;verticalLabelPosition=bottom;labelBackgroundColor=#ffffff;imageAspect=0;aspect=fixed;image=https://cdn0.iconfinder.com/data/icons/user-interface-1-32/32/ellipsis-128.png" vertex="1" parent="1">
          <mxGeometry x="850" y="640" width="88" height="88" as="geometry" />
        </mxCell>
        <mxCell id="jEz9bOiJI1WPqpKgRF9Z-51" value="&lt;font style=&quot;font-size: 24px&quot;&gt;位置编码&lt;/font&gt;" style="text;html=1;align=center;verticalAlign=middle;resizable=0;points=[];autosize=1;strokeColor=none;" vertex="1" parent="1">
          <mxGeometry x="845" y="290" width="110" height="20" as="geometry" />
        </mxCell>
        <mxCell id="jEz9bOiJI1WPqpKgRF9Z-54" value="" style="endArrow=classic;html=1;" edge="1" parent="1">
          <mxGeometry width="50" height="50" relative="1" as="geometry">
            <mxPoint x="960" y="381.93" as="sourcePoint" />
            <mxPoint x="1010" y="381.5" as="targetPoint" />
          </mxGeometry>
        </mxCell>
        <mxCell id="jEz9bOiJI1WPqpKgRF9Z-55" value="" style="endArrow=classic;html=1;" edge="1" parent="1">
          <mxGeometry width="50" height="50" relative="1" as="geometry">
            <mxPoint x="955" y="526.84" as="sourcePoint" />
            <mxPoint x="1005" y="526.41" as="targetPoint" />
          </mxGeometry>
        </mxCell>
        <mxCell id="jEz9bOiJI1WPqpKgRF9Z-57" value="" style="endArrow=classic;html=1;" edge="1" parent="1">
          <mxGeometry width="50" height="50" relative="1" as="geometry">
            <mxPoint x="955" y="595.0100000000001" as="sourcePoint" />
            <mxPoint x="1005" y="594.5799999999998" as="targetPoint" />
          </mxGeometry>
        </mxCell>
        <mxCell id="jEz9bOiJI1WPqpKgRF9Z-58" value="" style="endArrow=classic;html=1;" edge="1" parent="1">
          <mxGeometry width="50" height="50" relative="1" as="geometry">
            <mxPoint x="955" y="650.4300000000002" as="sourcePoint" />
            <mxPoint x="1005" y="649.9999999999999" as="targetPoint" />
          </mxGeometry>
        </mxCell>
        <mxCell id="jEz9bOiJI1WPqpKgRF9Z-59" value="" style="endArrow=classic;html=1;" edge="1" parent="1">
          <mxGeometry width="50" height="50" relative="1" as="geometry">
            <mxPoint x="955" y="684.0100000000003" as="sourcePoint" />
            <mxPoint x="1005" y="683.58" as="targetPoint" />
          </mxGeometry>
        </mxCell>
        <mxCell id="jEz9bOiJI1WPqpKgRF9Z-60" value="" style="endArrow=classic;html=1;" edge="1" parent="1">
          <mxGeometry width="50" height="50" relative="1" as="geometry">
            <mxPoint x="955" y="715.9300000000003" as="sourcePoint" />
            <mxPoint x="1005" y="715.5" as="targetPoint" />
          </mxGeometry>
        </mxCell>
        <mxCell id="jEz9bOiJI1WPqpKgRF9Z-61" value="" style="html=1;shadow=0;dashed=0;align=center;verticalAlign=middle;shape=mxgraph.arrows2.arrow;dy=0.6;dx=40;notch=0;sketch=0;strokeWidth=2;fillColor=none;gradientColor=none;opacity=60;" vertex="1" parent="1">
          <mxGeometry x="1230" y="515" width="70" height="50" as="geometry" />
        </mxCell>
        <mxCell id="jEz9bOiJI1WPqpKgRF9Z-63" value="&lt;font style=&quot;font-size: 24px&quot;&gt;视频&lt;/font&gt;" style="text;html=1;align=center;verticalAlign=middle;resizable=0;points=[];autosize=1;strokeColor=none;" vertex="1" parent="1">
          <mxGeometry x="380" y="190" width="60" height="20" as="geometry" />
        </mxCell>
        <mxCell id="jEz9bOiJI1WPqpKgRF9Z-5" value="" style="shape=image;html=1;verticalAlign=top;verticalLabelPosition=bottom;labelBackgroundColor=#ffffff;imageAspect=0;aspect=fixed;image=https://cdn0.iconfinder.com/data/icons/google-material-design-3-0/48/ic_face_48px-128.png" vertex="1" parent="1">
          <mxGeometry x="445.76529411764704" y="287.86918918918917" width="79.12815126050421" height="79.12815126050421" as="geometry" />
        </mxCell>
        <mxCell id="jEz9bOiJI1WPqpKgRF9Z-7" value="" style="shape=image;html=1;verticalAlign=top;verticalLabelPosition=bottom;labelBackgroundColor=#ffffff;imageAspect=0;aspect=fixed;image=https://cdn4.iconfinder.com/data/icons/basic-ui-2-line/32/speaker-high-sound-volume-voice-128.png" vertex="1" parent="1">
          <mxGeometry x="453.0882352941177" y="412.7027027027027" width="71.8014705882353" height="71.8014705882353" as="geometry" />
        </mxCell>
        <mxCell id="jEz9bOiJI1WPqpKgRF9Z-15" value="&lt;font style=&quot;font-size: 24px&quot;&gt;图像帧&lt;/font&gt;" style="text;html=1;strokeColor=none;fillColor=none;align=center;verticalAlign=middle;whiteSpace=wrap;rounded=0;fontSize=28;" vertex="1" parent="1">
          <mxGeometry x="493.53" y="250" width="79.12" height="56.76" as="geometry" />
        </mxCell>
        <mxCell id="jEz9bOiJI1WPqpKgRF9Z-16" value="&lt;font style=&quot;font-size: 24px&quot;&gt;语音帧&lt;/font&gt;" style="text;html=1;strokeColor=none;fillColor=none;align=center;verticalAlign=middle;whiteSpace=wrap;rounded=0;fontSize=28;" vertex="1" parent="1">
          <mxGeometry x="496.32941176470587" y="370.0002702702702" width="73.52941176470587" height="56.75675675675676" as="geometry" />
        </mxCell>
        <mxCell id="jEz9bOiJI1WPqpKgRF9Z-13" value="&lt;font style=&quot;font-size: 24px&quot;&gt;单帧&lt;/font&gt;" style="text;html=1;strokeColor=none;fillColor=none;align=center;verticalAlign=middle;whiteSpace=wrap;rounded=0;fontSize=28;" vertex="1" parent="1">
          <mxGeometry x="393.09000000000003" y="340" width="60" height="60" as="geometry" />
        </mxCell>
        <mxCell id="jEz9bOiJI1WPqpKgRF9Z-64" value="" style="endArrow=classic;html=1;shadow=0;strokeWidth=1;entryX=0;entryY=0.5;entryDx=0;entryDy=0;" edge="1" parent="1" target="jEz9bOiJI1WPqpKgRF9Z-8">
          <mxGeometry width="50" height="50" relative="1" as="geometry">
            <mxPoint x="540" y="319" as="sourcePoint" />
            <mxPoint x="600" y="319" as="targetPoint" />
          </mxGeometry>
        </mxCell>
        <mxCell id="jEz9bOiJI1WPqpKgRF9Z-65" value="" style="endArrow=classic;html=1;shadow=0;strokeWidth=1;entryX=0;entryY=0.5;entryDx=0;entryDy=0;" edge="1" parent="1">
          <mxGeometry width="50" height="50" relative="1" as="geometry">
            <mxPoint x="540" y="448.27" as="sourcePoint" />
            <mxPoint x="610" y="448.02" as="targetPoint" />
          </mxGeometry>
        </mxCell>
      </root>
    </mxGraphModel>
  </diagram>
</mxfile>
